<?xml version="1.0" encoding="UTF-8" standalone="no"?>
<!-- Created with Inkscape (http://www.inkscape.org/) -->

<svg
   xmlns:dc="http://purl.org/dc/elements/1.1/"
   xmlns:cc="http://creativecommons.org/ns#"
   xmlns:rdf="http://www.w3.org/1999/02/22-rdf-syntax-ns#"
   xmlns:svg="http://www.w3.org/2000/svg"
   xmlns="http://www.w3.org/2000/svg"
   version="1.1"
   width="1646.25"
   height="1047.5"
   id="svg2"
   xml:space="preserve"><metadata
     id="metadata8"><rdf:RDF><cc:Work
         rdf:about=""><dc:format>image/svg+xml</dc:format><dc:type
           rdf:resource="http://purl.org/dc/dcmitype/StillImage" /><dc:title></dc:title></cc:Work></rdf:RDF></metadata><defs
     id="defs6" /><g
     transform="matrix(1.25,0,0,-1.25,0,1047.5)"
     id="g10"><g
       transform="scale(0.1,0.1)"
       id="g12"><path
         d="M 6450,8363.79 C 5851,8282.74 5305.56,7989.18 4937.94,7550 4645.7,7200.87 4424.84,6708 4359.88,6260 c -5.95,-41 -12.92,-85.2 -15.38,-97.5 l -4.5,-22.5 430,0 0,25 c 0,86.57 74.43,376 139.89,544 278.8,715.52 838.11,1151.68 1625.11,1267.31 55.02,8.08 194,17.39 309,20.69 l 209,6 -6.27,76 c -7.68,93 -29.21,178.58 -62.4,248 l -25.33,53 -202,-1 c -113,-0.56 -248.26,-7.26 -307,-15.21"
         id="path14"
         style="fill:#000000;fill-opacity:1;fill-rule:nonzero;stroke:none" /><path
         d="m 3255,7477.8 c -88.98,-31.14 -128.14,-94.8 -128.45,-208.8 -0.39,-144.16 64.45,-206.05 226.45,-216.13 190,-11.83 287,61.56 287,217.13 0,103 -53.68,185.95 -135,208.58 -50,13.92 -209.42,13.42 -250,-0.78"
         id="path16"
         style="fill:#000000;fill-opacity:1;fill-rule:nonzero;stroke:none" /><path
         d="m 6841.12,7142 c -53.16,-56 -153.12,-240.96 -147,-272 5.15,-26.09 936.13,-2009 961.54,-2048 7.76,-11.91 33.84,-32.09 56.84,-44 36.02,-18.65 58.5,-22.04 147.5,-22.29 128,-0.34 254.75,27.01 246.93,53.29 -8.11,27.23 -985.08,2080 -1039.91,2185 -97.64,187 -153.89,223.85 -225.9,148"
         id="path18"
         style="fill:#000000;fill-opacity:1;fill-rule:nonzero;stroke:none" /><path
         d="M 63,6970.14 C 39,6965.04 15.582,6958.35 10,6955 3.57422,6951.14 0,6675 0,6182 0,5453 0.976562,5410.94 19.7109,5333 104.812,4978.95 402,4737.33 811,4689.66 c 306,-35.66 755.69,49.77 967,183.72 l 42,26.62 0,892 -60.62,76 c -104.49,131 -248.56,288.79 -290.38,318.03 -33,23.08 -41.66,25.43 -49.5,13.47 -5.38,-8.21 -9.5,-242.5 -9.5,-540.5 l 0,-526 -59,-26.71 c -114.36,-51.79 -203,-69.14 -351,-68.7 -104,0.32 -152.91,5.14 -213,21 C 633,5099.24 511.137,5188.29 456.613,5300 401.055,5413.84 400,5431 400,6222 l 0,726 -33,12.45 c -40.348,15.23 -247,21.82 -304,9.69"
         id="path20"
         style="fill:#000000;fill-opacity:1;fill-rule:nonzero;stroke:none" /><path
         d="m 1445,6973.52 c -65,-14.59 -85.99,-25.84 -83.01,-44.52 4.12,-25.81 1837.01,-2079.02 1907.01,-2136.25 67,-54.77 107.05,-72.75 162,-72.75 56,0 102.61,30.18 128.18,83 20.55,42.44 20.82,54 20.82,890 l 0,847 -104,0 c -117,0 -210.21,-22.78 -261,-63.78 l -30,-24.22 -5,-514.5 -5,-514.5 -655,758 c -360.34,417 -666.25,762.77 -680,768.61 -48.92,20.75 -135,30.78 -254,29.6 -67,-0.67 -129.93,-3.21 -141,-5.69"
         id="path22"
         style="fill:#000000;fill-opacity:1;fill-rule:nonzero;stroke:none" /><path
         d="m 8518,6952.5 c -7.44,-17.05 -12,-84.5 -12,-177.5 0,-93 4.56,-160.45 12,-177.5 l 12,-27.5 1620,0 12,27.5 c 7.5,17.23 12,83.5 12,177.5 0,94 -4.5,160.27 -12,177.5 l -12,27.5 -1620,0 -12,-27.5"
         id="path24"
         style="fill:#000000;fill-opacity:1;fill-rule:nonzero;stroke:none" /><path
         d="m 10947,6969.39 c -54,-12.61 -79.6,-28.12 -73.4,-44.39 9.2,-24.16 1822.4,-2049.43 1887.4,-2108.22 77,-69.64 130.6,-96.78 191,-96.78 56.1,0 101.2,33 129.6,95 17.5,37.98 18.4,93.5 18.4,1102.5 l 0,1062.5 -114,0 c -129,0 -227,-23.36 -264.3,-63 l -21.7,-23 -2.5,-736 -2.5,-736 -655,758 c -360.3,417 -666.2,762.89 -680,768.88 -68.4,29.74 -320,42.24 -413,20.51"
         id="path26"
         style="fill:#000000;fill-opacity:1;fill-rule:nonzero;stroke:none" /><path
         d="m 6382.35,6452 c -381.73,-618 -800.21,-1294.03 -826.39,-1335 -102.87,-161 -77.99,-285.68 63.04,-315.87 35.61,-7.62 296.5,-11.13 827.5,-11.13 l 775.5,0 -6.82,46 c -19.72,133 -81.67,282.2 -136.18,327.97 l -31,26.03 -500,0 c -275,0 -498.43,3.6 -496.5,8 1.93,4.4 130.66,211 286,459 163.49,261 282.45,460.69 282.38,474 -0.33,66 -165.29,369 -200.88,369 -3.79,0 -20.59,-22 -36.65,-48"
         id="path28"
         style="fill:#000000;fill-opacity:1;fill-rule:nonzero;stroke:none" /><path
         d="m 10944.6,6167 c -3.1,-12.1 -4.2,-328 -2.6,-702 l 3,-680 110,0.38 c 132,0.46 198.2,19.74 256,74.62 l 39,37 0,875 -43.6,61 c -55.8,78 -182.9,224.68 -259.4,299.23 -63,61.42 -92.9,71.58 -102.4,34.77"
         id="path30"
         style="fill:#000000;fill-opacity:1;fill-rule:nonzero;stroke:none" /><path
         d="m 8518,6102.5 c -7.44,-17.05 -12,-84.5 -12,-177.5 0,-93 4.56,-160.45 12,-177.5 l 12,-27.5 1620,0 12,27.5 c 7.5,17.23 12,83.5 12,177.5 0,94 -4.5,160.27 -12,177.5 l -12,27.5 -1620,0 -12,-27.5"
         id="path32"
         style="fill:#000000;fill-opacity:1;fill-rule:nonzero;stroke:none" /><path
         d="m 4340,5727.5 c 0,-17.8 4.7,-84.5 10.41,-147.5 112.36,-1242 870.91,-2078.02 2045.59,-2254.52 144,-21.64 417.24,-38.14 502,-30.31 l 74,6.83 23.44,53 c 38.91,88 65.83,190.1 67.75,257 l 1.81,63 -240,6.5 c -132,3.57 -276,11.79 -320,18.27 -494,72.64 -879.9,262.11 -1173.64,576.23 -321.72,344.04 -523.27,841 -566.58,1397 l -6.78,87 -418,0 0,-32.5"
         id="path34"
         style="fill:#000000;fill-opacity:1;fill-rule:nonzero;stroke:none" /><path
         d="m 8518,5172.5 c -7.44,-17.05 -12,-84.5 -12,-177.5 0,-93 4.56,-160.45 12,-177.5 l 12,-27.5 1620,0 12,27.5 c 7.5,17.23 12,83.5 12,177.5 0,94 -4.5,160.27 -12,177.5 l -12,27.5 -1620,0 -12,-27.5"
         id="path36"
         style="fill:#000000;fill-opacity:1;fill-rule:nonzero;stroke:none" /><path
         d="m 6730,2684 c -69,-46.92 -131.72,-89.03 -140,-94 -12.98,-7.79 -12.58,-13.5 3,-42.5 9.67,-18 28.41,-46.69 40.5,-62 l 22.5,-28.5 152.5,77.5 152.5,77.5 -27.37,47 c -41.34,71 -67.87,110.77 -73.63,110.36 -2.76,-0.2 -61,-38.44 -130,-85.36"
         id="path38"
         style="fill:#000000;fill-opacity:1;fill-rule:nonzero;stroke:none" /><path
         d="m 8227.5,2731.5 -97.5,-15.5 0,-334 -47,14.55 c -58,17.95 -180.88,12.08 -236,-11.27 -48.78,-20.67 -111.98,-78.28 -141.82,-129.28 -51.77,-88.51 -69.67,-256 -39.74,-372 C 7724.7,1654.32 7943,1573.61 8297,1650.49 l 53,11.51 0,544 c 0,429 -2.64,543.68 -12.5,542.5 -6.92,-0.83 -56,-8.41 -110,-17 z m -136.5,-522.95 39,-11.55 0,-187.5 c 0,-186 -0.18,-187.55 -23,-193.54 -75,-19.72 -161.24,10.83 -197.76,70.04 -34.25,55.54 -39.95,195 -10.45,256 34.68,71.74 99.21,94.08 192.21,66.55"
         id="path40"
         style="fill:#000000;fill-opacity:1;fill-rule:nonzero;stroke:none" /><path
         d="m 1918,2714.41 c -75,-40.52 -77.37,-169.63 -4,-217.95 15.93,-10.49 45.5,-16.46 81.5,-16.46 51,0 59.81,3.31 90.5,34 30.42,30.42 34,40 34,91 0,51 -3.58,60.58 -34,91 -30.5,30.5 -39.5,33.95 -87.5,33.5 -29,-0.27 -65.86,-7.18 -80.5,-15.09"
         id="path42"
         style="fill:#000000;fill-opacity:1;fill-rule:nonzero;stroke:none" /><path
         d="m 5368,2701.5 c -28.1,-25.02 -32.49,-36 -36,-90 -3.84,-59 -2.58,-62.92 31,-96.5 32.04,-32.04 40,-35 94,-35 87,0 133,43.23 133,125 0,79.46 -51,125 -140,125 -41,0 -55.76,-5.13 -82,-28.5"
         id="path44"
         style="fill:#000000;fill-opacity:1;fill-rule:nonzero;stroke:none" /><path
         d="M 10141,2634.84 C 9979.06,2589.4 9859.2,2466 9814.77,2299 c -18.67,-70.17 -18.48,-256 0.35,-336 56.09,-238.4 239.88,-356.33 529.88,-340.01 109,6.13 261.8,47.18 271.7,73.01 5,12.79 -42.3,160 -56.7,177 -3.3,3.85 -30.5,-2.66 -60.5,-14.5 -37.4,-14.76 -86,-22.91 -155,-26 -89,-3.98 -106.6,-1.91 -153.5,18.18 -104,44.5 -154.5,141.32 -153.4,294.32 0.9,135 49.3,226.35 147.4,278.2 61.5,32.5 196,29.47 289,-6.51 38,-14.7 69.9,-25.34 71,-23.69 15.9,24 62.8,183.19 56,190 -5,4.99 -39.5,20.36 -77.5,34.5 -58,21.58 -88.5,26.04 -198.5,29 -94,2.53 -145,-0.7 -184,-11.66"
         id="path46"
         style="fill:#000000;fill-opacity:1;fill-rule:nonzero;stroke:none" /><path
         d="m 5945,2604.5 c -5.52,-1.93 -42.5,-8.66 -82.5,-15 l -72.5,-11.5 0,-331.5 c 0,-182 4.74,-360.36 10.52,-395.5 18.07,-110 55.89,-162.99 144.48,-202.44 64.98,-28.94 211,-31.36 299,-4.96 51,15.3 57.34,20.06 52.5,39.4 -3,12 -10.73,52 -17,88 l -11.5,66 -57,-13.5 c -73,-17.29 -105.42,-17.08 -140,0.92 -45.35,23.6 -53.81,56.58 -58.61,228.58 l -4.39,157 262,0 0,180 -260,0 0,220 -27.5,-1 c -15,-0.55 -32.05,-2.59 -37.5,-4.5"
         id="path48"
         style="fill:#000000;fill-opacity:1;fill-rule:nonzero;stroke:none" /><path
         d="m 1121,2395.11 c -41,-7.82 -84.48,-16.56 -97.5,-19.61 l -23.5,-5.5 0,-730 230,0 0,580 60,0 c 74,0 113.29,-18.72 130.15,-62 8.69,-22.32 14.31,-111.5 17.35,-275.5 l 4.5,-242.5 220,0 -4,272.5 c -3.71,253 -5.62,276.58 -26.59,329.5 -24.56,62 -79.62,119.16 -140.41,145.75 -49.9,21.83 -271,26.23 -370,7.36"
         id="path50"
         style="fill:#000000;fill-opacity:1;fill-rule:nonzero;stroke:none" /><path
         d="M 3303,2389.61 C 3228.9,2360.46 3157.25,2292 3118.16,2213 c -30.09,-60.8 -33.51,-77 -36.97,-175 -5.43,-154 18.3,-229.37 96.81,-307.5 85.28,-84.88 142,-104.5 302,-104.5 87,0 144.61,5.32 189.5,17.5 35,9.5 66.33,19.3 68.5,21.43 5.2,5.1 -19.69,161.07 -27.78,174.07 -3.91,6.29 -22.72,4.07 -50.72,-6 -27.64,-9.94 -80.5,-16.32 -139.5,-16.85 -106,-0.94 -138.73,10.44 -183.6,63.85 -50.4,60 -50.4,60 209.6,60 l 236,0 -3.5,117.5 c -3.01,101 -7.18,125.36 -29.73,173.5 -31.84,68 -80.1,117.77 -144.77,149.3 -69.71,33.99 -226,38.82 -301,9.31 z m 205,-179.8 c 29,-17.69 62,-70.81 62,-99.81 0,-6.38 -47,-10 -130,-10 -143,0 -145.36,1.25 -114.67,61 33.39,65 118.74,87.8 182.67,48.81"
         id="path52"
         style="fill:#000000;fill-opacity:1;fill-rule:nonzero;stroke:none" /><path
         d="m 4150,2399.6 c -24.48,-4.68 -73.5,-16.35 -107.5,-25.6 l -62.5,-17 0,-717 220,0 0,569 47.5,7 c 26.85,3.96 77.5,2 116.5,-4.5 38,-6.33 71.25,-9.27 74,-6.54 9,8.93 39.61,175.5 33,179.61 -34.79,21.62 -237,31.09 -321,15.03"
         id="path54"
         style="fill:#000000;fill-opacity:1;fill-rule:nonzero;stroke:none" /><path
         d="M 4757,2395.36 C 4649.06,2356.61 4600.16,2289 4600.51,2179 4600.9,2055.8 4641,2007.93 4801,1939.62 c 120,-51.23 141.29,-65.58 137.43,-92.62 -5.06,-35.41 -44.43,-49.05 -123.43,-42.76 -63,5.02 -142.47,22.17 -186,40.15 -13.05,5.39 -19.09,-7.39 -32.75,-69.39 -24.47,-111 -24.89,-109.81 45.75,-130.98 85,-25.47 301.3,-25.82 367,-0.6 99,38 150.16,106.54 150.48,201.58 0.46,138.63 -31.48,172.2 -260.48,273.77 -79,35.03 -98.89,61.34 -69,91.23 16.06,16.06 33.5,20 88.5,20 38,0 90.09,-6.46 117,-14.5 27,-8.07 50.27,-12.73 52.5,-10.5 4.01,4.01 40.88,151 41.64,166 0.2,3.86 -30.64,14.12 -68.64,22.84 -85,19.52 -251.55,20.35 -304,1.52"
         id="path56"
         style="fill:#000000;fill-opacity:1;fill-rule:nonzero;stroke:none" /><path
         d="M 6630,2388.24 C 6533.43,2351 6447.33,2244 6420.59,2128 c -14.3,-62 -12.39,-185 3.8,-246 48.83,-183.91 197.61,-273.24 430.61,-258.54 78,4.92 200.79,29.33 214,42.54 3.6,3.6 -19,184.52 -23,184.1 -0.55,-0.05 -22,-6.44 -48,-14.3 -138,-41.7 -269.59,-25.92 -326.84,39.2 -57.16,65 -57.16,65 202.84,65 l 235,0 7.14,38 c 10.38,55.26 -10.85,201 -37.6,258 -32.37,69 -94.77,127.8 -162.54,153.14 -78,29.18 -209.08,28.76 -286,-0.9 z m 200,-170.98 c 29,-14.6 70,-72.16 70,-98.26 0,-17.54 -10,-19 -130,-19 -88,0 -130,3.55 -130,11 0,26.69 36,82.83 64,99.8 36,21.83 90,24.6 126,6.46"
         id="path58"
         style="fill:#000000;fill-opacity:1;fill-rule:nonzero;stroke:none" /><path
         d="m 8770,2387.76 c -75.08,-29 -158.98,-113.76 -190.82,-192.76 -21.09,-52.32 -24.18,-76 -24.18,-185 0,-121 1.05,-127.14 32.97,-192 39.37,-80 101.69,-138.47 181.03,-169.85 47.49,-18.78 75,-22.15 181,-22.15 87,0 144.61,5.32 189.5,17.5 35,9.5 66.33,19.33 68.5,21.5 4.5,4.5 -17.3,164 -24.06,176 -2.15,3.83 -25.44,0.21 -51.44,-8 -26.5,-8.37 -89.5,-15.56 -142.5,-16.27 -106,-1.42 -138.73,9.86 -183.6,63.27 -50.4,60 -50.4,60 207.6,60 l 235,0 6.76,45 c 10.2,67.82 -11.46,191 -46.06,262 -34.34,70.47 -83.7,114.94 -159.7,143.86 -70.89,26.98 -206,25.49 -280,-3.1 z m 201,-173.19 c 32,-16.5 69,-68.28 69,-96.57 0,-16.2 -13,-18 -130,-18 -83,0 -130,3.8 -130,10.5 0,5.87 6.27,25.5 14.2,44.5 26.94,64.48 111.8,93.07 176.8,59.57"
         id="path60"
         style="fill:#000000;fill-opacity:1;fill-rule:nonzero;stroke:none" /><path
         d="m 10887.5,2396.5 c -32,-6.96 -59.9,-15.16 -63,-18.5 -3.1,-3.33 -0.2,-44.5 6.5,-92.5 11.1,-80 13.6,-86.06 33,-80.6 54,15.16 177.8,27.24 218,21.26 48,-7.14 83.4,-33.12 98.3,-72.16 18.4,-48.29 16.7,-49 -118.3,-49 -111,0 -133.3,-2.89 -177,-22.97 -97.2,-44.66 -135,-104.03 -135,-212.03 0,-116 57.6,-194 167,-226.33 91.2,-26.94 284,-21.47 456,12.93 l 27,5.4 0,252 c 0,344 -16.9,402.76 -133,463.02 -48.1,24.98 -62,27.16 -187,29.48 -82,1.52 -157.6,-2.41 -192.5,-10 z m 286.5,-442.4 c 12.6,-4.8 16,-22.1 16,-81.1 l 0,-75 -89,3.64 c -102,4.17 -131,20.19 -131,72.36 0,39 7.7,50.98 45,70.41 29.9,15.54 128,21.52 159,9.69"
         id="path62"
         style="fill:#000000;fill-opacity:1;fill-rule:nonzero;stroke:none" /><path
         d="m 11817,2390.8 c -143.6,-57.43 -226.9,-194.8 -226.6,-373.8 0.4,-272.13 157.6,-411.23 444.6,-393.38 77,4.79 200.4,28.76 213,41.38 3.6,3.62 -18,185.5 -22,185.1 -0.6,-0.06 -22,-6.44 -48,-14.3 -138,-41.7 -269.6,-25.92 -326.8,39.2 -57.2,65 -57.2,65 202.8,65 l 235,0 7,36 c 3.9,19.88 4,66 0.2,103 -15.1,150 -69.3,244.11 -170.2,295.79 -52.6,26.92 -70,30.48 -160,32.71 -80,1.98 -111,-1.49 -149,-16.7 z m 194,-176.01 c 32,-16.6 69,-68.5 69,-96.79 0,-16.2 -13,-18 -130,-18 -88,0 -130,3.55 -130,11 0,5.97 7.6,27 16.6,46 31.3,66 109,91.74 174.4,57.79"
         id="path64"
         style="fill:#000000;fill-opacity:1;fill-rule:nonzero;stroke:none" /><path
         d="m 12611,2395 c -41,-7.76 -84.5,-16.45 -97.5,-19.5 l -23.5,-5.5 0,-730 220,0 0,580 68,0 c 47,0 75.1,-4.99 91,-16.16 45.7,-32.11 51,-65.84 51,-323.84 l 0,-240 232,0 -4.5,267.5 c -3.7,220 -7.7,276.73 -22.4,319.5 -23.4,68 -66.4,118.21 -129.1,150.62 -46.3,23.95 -63,26.61 -181,28.88 -81,1.56 -157.9,-2.78 -204,-11.5"
         id="path66"
         style="fill:#000000;fill-opacity:1;fill-rule:nonzero;stroke:none" /><path
         d="m 120,2152.5 c 0,-153 4.629,-259.2 13.012,-298.5 24.109,-113 80.703,-179.87 181.988,-215.04 55.613,-19.3 247,-16.46 362,5.38 l 93,17.66 0,728 -220,0 0,-567 -45,-6.21 c -64,-8.83 -114.188,10.33 -139.41,53.21 -18.934,32.19 -20.871,54.5 -24.09,277.5 l -3.5,242.5 -218,0 0,-237.5"
         id="path68"
         style="fill:#000000;fill-opacity:1;fill-rule:nonzero;stroke:none" /><path
         d="m 1880,2015 0,-375 220,0 0,750 -220,0 0,-375"
         id="path70"
         style="fill:#000000;fill-opacity:1;fill-rule:nonzero;stroke:none" /><path
         d="m 2254.36,2288 c 49.8,-157 102.56,-299.43 167.8,-453 91.76,-216 72.07,-195 182.84,-195 l 94,0 41.28,88 c 79.28,169 239.72,603.36 239.72,649 0,10.05 -25.5,13 -112.5,13 l -112.5,0 -24.07,-87 c -26.83,-97 -108.98,-350.78 -120.09,-371 -6.22,-11.32 -84.89,221 -135.46,400 l -16.38,58 -237,0 32.36,-102"
         id="path72"
         style="fill:#000000;fill-opacity:1;fill-rule:nonzero;stroke:none" /><path
         d="m 5350,2015 0,-375 220,0 0,750 -220,0 0,-375"
         id="path74"
         style="fill:#000000;fill-opacity:1;fill-rule:nonzero;stroke:none" /><path
         d="m 11582.5,1102 -92.5,-15 0,-329 -23,7.438 c -50.4,16.296 -175,16.57 -230,0.5 C 11162.6,744.207 11091.1,679 11056.2,601 11001.9,480 10998.9,307.508 11049.1,194 11076.3,132.48 11143,64.918 11208,32.9922 11263.2,5.875 11270,5 11425,5 c 100,0 183.4,5.25 222.5,14 l 62.5,14 0,543.5 c 0,511 -1,543.41 -17.5,542 -9.6,-0.83 -59,-8.23 -110,-16.5 z m -124,-523 31.5,-11 0,-375 -40,-6.668 c -54,-9 -122.8,9.707 -153.3,41.668 -75.4,79 -75.2,266.246 0.3,332.27 27.6,24.156 43,29.73 82,29.73 26,0 62.4,-5.043 79.5,-11"
         id="path76"
         style="fill:#000000;fill-opacity:1;fill-rule:nonzero;stroke:none" /><path
         d="m 12054,1096.43 c -50.7,-22.91 -74,-61.43 -74,-122.43 0,-45 4.7,-59.25 28,-85.5 22.8,-25.668 38,-32.445 82,-36.605 113,-10.684 179.6,78.308 136.3,182.105 -24.9,59.48 -110.3,90.44 -172.3,62.43"
         id="path78"
         style="fill:#000000;fill-opacity:1;fill-rule:nonzero;stroke:none" /><path
         d="m 250,1005 c -8.211,-2.19 -36.5,-6.715 -62.5,-10 L 140,989 142.5,507 145,25 230,12 C 284.09,3.72656 375,0.476562 480,3.0625 665,7.62109 743.539,25.3633 818,79.418 c 138,100.184 145.945,348.316 14,437.32 -18,12.145 -37.547,23.625 -43,25.262 -5.609,1.684 7.059,21 28.852,44 C 911.922,685.27 895,851.016 782,937.184 710.422,991.766 658,1002.63 450,1006 c -102,1.66 -191.73,1.21 -200,-1 z M 601,804.395 C 635.543,786.492 649.887,761 649.617,718 649.18,648.52 594,620 460,620 l -90,0 0,99.5 c 0,95 1.039,99.727 23,104.484 40,8.672 178.668,-4.386 208,-19.589 z M 627,417.207 C 676.539,391.211 693.535,359 687.266,303 683.68,271 674.98,250.301 660,238.141 622.551,207.742 539,189.09 454,192.152 l -79,2.848 -3,124 -3,124 113,-4.5 c 80,-3.188 122.344,-9.402 145,-21.293"
         id="path80"
         style="fill:#000000;fill-opacity:1;fill-rule:nonzero;stroke:none" /><path
         d="m 5140,505 0,-495 220,0 2.5,317 2.5,317 70.86,-89 C 5528.7,438.41 5624.57,299 5719.89,142 L 5797,15 l 96.5,-3 96.5,-3 0,991 -230,0 0,-554 -28,39.5 c -15.55,21.945 -56.46,79.5 -92.03,129.5 -84.67,119 -202.14,267.242 -263.09,332 l -49.88,53 -187,0 0,-495"
         id="path82"
         style="fill:#000000;fill-opacity:1;fill-rule:nonzero;stroke:none" /><path
         d="m 1334,779.82 c -34,-4.359 -79.37,-12.91 -102.5,-19.32 -35,-9.699 -40.71,-14.945 -36.5,-33.5 2.73,-12.031 9.3,-51 14.5,-86 5.2,-35 10.86,-65.133 12.5,-66.5 1.67,-1.395 34,4.145 73,12.5 39,8.355 100.34,13.23 138.5,11 62,-3.621 71.25,-7.035 97.5,-36 16.31,-18 29,-42.5 29,-56 0,-23.812 -1,-24.027 -128,-27.5 -119,-3.254 -132.15,-5.621 -187,-33.664 C 1160.49,401.633 1126,344 1126,246 1126,114 1189.68,35.8047 1319,9.01562 1387.04,-5.08203 1626,2.16406 1719,21.1445 L 1782,34 l -4.63,270 c -4.92,287 -9.73,318.898 -57.91,384 C 1660.21,768.07 1514,802.898 1334,779.82 z M 1560,250 l 0,-80 -72,0 c -82,0 -115.18,12.758 -137.81,53 -13.5,24 -13.5,30 0,54 22.63,40.242 55.81,53 137.81,53 l 72,0 0,-80"
         id="path84"
         style="fill:#000000;fill-opacity:1;fill-rule:nonzero;stroke:none" /><path
         d="M 2240,780.207 C 2096,753.324 2030.17,681.914 2030.54,553 2030.91,423.438 2070,377.168 2236,309.781 c 54,-21.918 106.08,-47.14 116,-56.176 23,-20.945 23.79,-46.468 2,-64.66 -30.91,-25.804 -201,-11.136 -295,25.442 -13.79,5.363 -19.17,-3.387 -28.5,-46.387 -6.29,-29 -13.99,-71.5664 -17,-94 L 2008,33 2078.5,15.5 C 2133.16,1.92969 2180,-1.10156 2287,2 2414,5.67969 2429.14,8.15234 2477,33.0273 2545.75,68.7578 2580.09,120 2586.88,197 c 2.83,32 0.13,76.828 -6.02,100 -20.89,78.797 -54.86,103.828 -272.86,201.082 -60,26.766 -74.29,51.152 -48.6,82.918 16.29,20.145 27.1,22.938 87.1,22.5 38,-0.277 91.88,-7.625 121,-16.5 52,-15.848 52.55,-15.789 57.59,6 27.28,118 33.93,151.875 30.41,155 -2.45,2.176 -30.5,10.086 -61.5,17.348 -77,18.027 -198.85,25.156 -254,14.859"
         id="path86"
         style="fill:#000000;fill-opacity:1;fill-rule:nonzero;stroke:none" /><path
         d="M 3020,780.207 C 2876,753.324 2810.17,681.914 2810.54,553 2810.91,423.438 2850,377.168 3016,309.781 c 54,-21.918 106.08,-47.14 116,-56.176 23,-20.945 23.79,-46.468 2,-64.66 -30.91,-25.804 -201,-11.136 -295,25.442 -13.79,5.363 -19.17,-3.387 -28.5,-46.387 -6.29,-29 -13.99,-71.5664 -17,-94 L 2788,33 2858.5,15.5 C 2913.16,1.92969 2960,-1.10156 3067,2 3194,5.67969 3209.14,8.15234 3257,33.0273 3325.75,68.7578 3360.09,120 3366.88,197 c 2.83,32 -0.02,77.277 -6.34,101 -21.12,79.191 -57.54,106.328 -261.54,194.891 -70,30.386 -86.61,54.914 -59.67,88.109 16.35,20.145 27.17,22.938 87.17,22.5 38,-0.277 91.88,-7.625 121,-16.5 52,-15.848 52.55,-15.789 57.59,6 27.28,118 33.93,151.875 30.41,155 -2.45,2.176 -30.5,10.086 -61.5,17.348 -77,18.027 -198.85,25.156 -254,14.859"
         id="path88"
         style="fill:#000000;fill-opacity:1;fill-rule:nonzero;stroke:none" /><path
         d="M 3862,779.383 C 3638.22,735.18 3519.44,481 3602,223 3627.28,144 3688,74.6211 3767,34.4766 3821.16,6.94922 3834,4.76953 3961,1.5 c 103,-2.65234 151.53,0.50391 200,13 35,9.0234 67.62,20.125 72,24.5 7.52,7.5234 -15,167 -25,177 -2.65,2.652 -16.5,0.539 -29.5,-4.5 -13.36,-5.184 -59.5,-14.809 -101.5,-21.176 -129,-19.558 -222.2,12.629 -262.53,90.676 -7.75,15 -14.47,30.555 -14.47,33.5 0,3.027 108.5,5.5 241.5,5.5 l 241.5,0 -4.5,112.5 c -3.76,94 -8.74,121.707 -30.3,168.5 -45.88,99.562 -122.2,157.961 -233.2,178.43 -66,12.172 -91.18,12.164 -153,-0.047 z m 146,-199.754 c 29,-17.602 62,-70.629 62,-99.629 0,-6.344 -49,-10 -134,-10 l -134,0 11,35.5 c 6.2,20 25.41,48.195 44,64.578 40.96,36.098 101,39.895 151,9.551"
         id="path90"
         style="fill:#000000;fill-opacity:1;fill-rule:nonzero;stroke:none" /><path
         d="M 6541,779.727 C 6344.55,738.766 6222.65,542 6256.79,321 6277.19,189 6341.37,89.8672 6442,34.9336 6489.05,9.24609 6507,5.56641 6602,2.13281 6766,-3.79688 6853.51,34.3945 6924.78,143 c 51.81,78.945 68.43,150 63.41,271 -3.65,88 -8.17,109.367 -35.09,166 -38.51,81 -91.22,134.492 -168.1,170.59 -67.43,31.664 -172,44.152 -244,29.137 z m 149,-204.688 c 99,-51.066 101.07,-306.051 3,-370.25 -37,-24.223 -106.54,-22.957 -141,2.563 -44.67,33.078 -64.98,78.648 -69.82,156.648 -5.64,91 10.77,150.945 52.82,193 27.68,27.676 40.5,33 79.5,33 26,0 59.29,-6.594 75.5,-14.961"
         id="path92"
         style="fill:#000000;fill-opacity:1;fill-rule:nonzero;stroke:none" /><path
         d="M 9410,780.238 C 9374,775.676 9326.71,767.094 9304,761 l -41,-11 14,-87 c 7.73,-48 14.9,-87.898 16,-89 1.12,-1.113 33,4.645 72,13 39,8.355 100.34,13.23 138.5,11 62,-3.621 71.25,-7.035 97.5,-36 16.31,-18 29,-42.5 29,-56 0,-23.906 -0.5,-24.016 -127.5,-28 C 9400.5,474.801 9366,469.855 9330,453.27 9237.07,410.461 9197.41,345 9198.36,236 9199.46,109.672 9262,35.1836 9389,8.93359 9456.6,-5.03906 9696,2.35547 9788,21.2617 L 9850,34 l 0,230 c 0,258 -9.41,341.078 -45.67,403 -25.66,43.824 -85.33,86 -146.33,103.43 -49.32,14.09 -175,19.062 -248,9.808 z M 9630,250 l 0,-80 -73,0 c -82,0 -116.41,13.492 -135.18,53 -10.44,22 -10.44,32 0,54 18.77,39.508 53.18,53 135.18,53 l 73,0 0,-80"
         id="path94"
         style="fill:#000000;fill-opacity:1;fill-rule:nonzero;stroke:none" /><path
         d="M 12751,779.957 C 12554.7,738.746 12436.6,543 12469.3,313 c 19,-134 82.9,-228.2266 189.7,-279.9023 51.1,-24.70708 68,-27.44926 192,-31.0977 103,-3.03125 151.5,0.00391 200,12.5 35,9.0234 67.6,20.125 72,24.5 6.7,6.707 -17,169 -26,178 -2.1,2.121 -15.5,-0.461 -28.5,-5.5 -13.4,-5.184 -59.5,-14.809 -101.5,-21.176 -129,-19.558 -222.2,12.629 -262.5,90.676 -7.8,15 -14.5,30.555 -14.5,33.5 0,3.035 108,5.5 241,5.5 l 241,0 -4.5,107.5 c -2.6,62 -11.1,125.699 -20.2,150.5 -33.1,91 -99.2,157.555 -186.3,187.688 -53,18.328 -157,25.394 -210,14.269 z m 147,-200.328 c 29,-17.602 62,-70.629 62,-99.629 0,-6.344 -49,-10 -134,-10 l -134,0 11,35.5 c 6.2,20 25.4,48.195 44,64.578 41,36.098 101,39.895 151,9.551"
         id="path96"
         style="fill:#000000;fill-opacity:1;fill-rule:nonzero;stroke:none" /><path
         d="M 7375,764.125 C 7342,755.805 7298.12,744.5 7277.5,739 l -37.5,-10 0,-719 220,0 0,570 26,6.5 c 26.4,6.602 138,-0.762 186,-12.266 24.53,-5.882 26.64,-3.234 37.34,46.766 25.24,118 25.08,135.09 -1.34,143.117 -50.61,15.379 -272,15.383 -333,0.008"
         id="path98"
         style="fill:#000000;fill-opacity:1;fill-rule:nonzero;stroke:none" /><path
         d="m 8020,762 -85,-17 -2.5,-367.5 -2.5,-367.5 220,0 0,580 59,0 c 70,0 105.36,-22.848 120.7,-78 5.67,-20.371 10.3,-141.5 10.3,-269.5 l 0,-232.5 221,0 -3,279.5 -3,279.5 23,10.434 c 40,18.144 98.35,12.48 127,-12.332 C 8742.97,534.219 8749.08,489 8749.56,237 l 0.44,-227 220,0 0,257 c 0,282 -8.03,344.047 -53.33,412 -14.6,21.895 -48.17,52.672 -74.17,68 -44.61,26.297 -54.5,28 -162.5,28 -104,0 -120.12,-2.535 -168.5,-26.5 L 8458,722 l -51,26.5 c -46.32,24.07 -62.5,26.684 -176.5,28.5 -85,1.355 -152.93,-3.484 -210.5,-15"
         id="path100"
         style="fill:#000000;fill-opacity:1;fill-rule:nonzero;stroke:none" /><path
         d="m 10220,764.434 c -41,-7.446 -79.8,-15.664 -87,-18.434 -10.4,-4.008 -13,-77.5 -13,-370.5 l 0,-365.5 220,0 0,580 68,0 c 47,0 75.1,-4.992 91,-16.164 45.7,-32.102 51,-65.836 51,-323.836 l 0,-240 221,0 -3,282.5 c -2.9,273 -3.8,284.281 -27.2,335.5 -29.5,64.766 -88.8,117.266 -154.8,137.012 -62.2,18.613 -262,18.297 -366,-0.578"
         id="path102"
         style="fill:#000000;fill-opacity:1;fill-rule:nonzero;stroke:none" /><path
         d="m 12000,390 0,-380 220,0 0,760 -220,0 0,-380"
         id="path104"
         style="fill:#000000;fill-opacity:1;fill-rule:nonzero;stroke:none" /><path
         d="m 4480,425 0,-105 420,0 0,210 -420,0 0,-105"
         id="path106"
         style="fill:#000000;fill-opacity:1;fill-rule:nonzero;stroke:none" /></g></g></svg>